Coordinates
version=1
nRows=22
nColumns=24
inDegrees=yes

Units are S.I. units (second, meters, Newtons, ...)
Angles are in degrees.

endheader
time	pelvis_tilt	pelvis_list	pelvis_rotation	pelvis_tx	pelvis_ty	pelvis_tz	hip_flexion_r	hip_adduction_r	hip_rotation_r	knee_angle_r	ankle_angle_r	subtalar_angle_r	mtp_angle_r	hip_flexion_l	hip_adduction_l	hip_rotation_l	knee_angle_l	ankle_angle_l	subtalar_angle_l	mtp_angle_l	lumbar_extension	lumbar_bending	lumbar_rotation
      4.29500000	     -7.18920690	     -2.39548168	     -6.11604209	     -1.23098349	     -0.03931374	     -0.30202631	     -6.82045461	      2.83428221	      5.25054638	    -22.36065437	      6.61168366	     11.24626801	     18.14509978	     36.05783820	     -4.37033214	     -1.00858092	    -17.08451827	      4.45252749	     16.02969238	    -15.58557335	      7.00264405	      0.93033372	      5.46881080
      4.30000000	     -7.33604256	     -2.10025496	     -6.05763124	     -1.22341419	     -0.04027213	     -0.30256859	     -6.66149103	      2.38707821	      4.85624714	    -23.14520455	      5.84458170	     11.64552906	     19.62813695	     36.23484108	     -4.03001676	     -1.24789215	    -17.81977315	      3.46037249	     15.74223811	    -14.33618522	      7.33838388	      0.46701768	      5.22486531
      4.30500000	     -7.53349811	     -1.74080965	     -6.17546918	     -1.21599825	     -0.04112102	     -0.30288303	     -6.32480066	      1.86304638	      4.59852387	    -24.17058997	      5.32513343	     12.32064181	     20.14560723	     36.46953800	     -3.76840866	     -1.75799433	    -18.64366899	      2.79439782	     15.64094513	    -14.06609918	      7.70821423	     -0.03286782	      5.24257353
      4.31000000	     -7.77049660	     -1.37318637	     -6.14709497	     -1.20856784	     -0.04193615	     -0.30340694	     -5.92946326	      1.30890656	      4.05520317	    -25.18790877	      4.63406686	     13.11008871	     21.01093115	     36.77498702	     -3.41388706	     -2.13240385	    -19.46944646	      2.02590540	     15.50782463	    -13.67091309	      8.12435138	     -0.56396423	      5.07330899
      4.31500000	     -7.97020400	     -0.99221874	     -6.03641109	     -1.20110344	     -0.04253363	     -0.30400390	     -5.60079416	      0.73121557	      3.42453332	    -26.05210708	      3.42759481	     13.56293426	     22.93314080	     36.99229537	     -2.97474393	     -2.27843895	    -20.15710769	      0.95520041	     15.12499364	    -12.62556888	      8.49867659	     -1.13597389	      4.79487577
      4.32000000	     -8.19469539	     -0.59824098	     -6.00719703	     -1.19376135	     -0.04308508	     -0.30448495	     -5.14604895	      0.12371076	      2.83956471	    -27.15865593	      2.56830942	     14.44248918	     23.52058127	     37.29103161	     -2.61261527	     -2.69232962	    -21.01781837	      0.34596564	     15.10443305	    -12.49868421	      8.88116575	     -1.70361819	      4.64899734
      4.32500000	     -8.40402225	     -0.18598613	     -5.86060174	     -1.18632483	     -0.04346581	     -0.30517740	     -4.74174305	     -0.53096821	      2.09361536	    -28.09973288	      1.17445679	     15.04143528	     25.30862854	     37.50953439	     -2.09507387	     -2.69388901	    -21.73267751	     -0.44793400	     14.63987422	    -12.14533918	      9.25720207	     -2.30659864	      4.37313982
      4.33000000	     -8.61998017	      0.20612128	     -5.78048663	     -1.17896157	     -0.04381984	     -0.30580139	     -4.25150751	     -1.18960785	      1.38696597	    -29.22999083	      0.00187237	     16.00540946	     26.04412028	     37.76324857	     -1.66508574	     -2.89705198	    -22.55088047	     -0.90407958	     14.48628352	    -12.11693341	      9.62645905	     -2.86686211	      4.16405044
      4.33500000	     -8.80991205	      0.60351139	     -5.64177446	     -1.17161892	     -0.04404509	     -0.30655460	     -3.77868852	     -1.88122764	      0.60115257	    -30.31726780	     -1.47338829	     16.83004230	     27.32028173	     37.93439538	     -1.13045842	     -2.78662872	    -23.26135150	     -1.38513434	     13.99736729	    -12.14479377	      9.95431572	     -3.44036459	      3.93448272
      4.34000000	     -8.91233779	      1.00828792	     -5.49024014	     -1.16416178	     -0.04402393	     -0.30725110	     -3.43842768	     -2.57633555	     -0.10415971	    -31.26135193	     -3.36217588	     17.30243592	     29.16305956	     37.94479032	     -0.55861668	     -2.58845609	    -23.88064856	     -1.78152204	     13.52517011	    -12.13359369	     10.20550780	     -4.03460007	      3.71608414
      4.34500000	     -9.03202759	      1.38812429	     -5.36281255	     -1.15681724	     -0.04403467	     -0.30800515	     -3.00549061	     -3.26640548	     -0.77873895	    -32.36069569	     -5.12172624	     17.98323377	     30.32932729	     37.96891174	     -0.00845400	     -2.40762912	    -24.50044214	     -2.04430029	     13.04275760	    -12.12062138	     10.45053031	     -4.57801688	      3.49173026
      4.35000000	     -9.15261926	      1.74799294	     -5.25151547	     -1.14956561	     -0.04403638	     -0.30881870	     -2.51399287	     -3.95240683	     -1.40251042	    -33.56534562	     -6.82195095	     18.79114123	     31.00891752	     37.96898180	      0.53828546	     -2.18258155	    -25.08328475	     -2.20508438	     12.53071301	    -12.09207113	     10.67869139	     -5.07674006	      3.28325093
      4.35500000	     -9.23214180	      2.13011226	     -5.12426229	     -1.14227992	     -0.04392713	     -0.30966546	     -2.05699733	     -4.66076608	     -1.97759027	    -34.74579655	     -8.70214149	     19.37625439	     31.81336652	     37.85376192	      1.15689522	     -1.83703014	    -25.54601343	     -2.33214848	     11.88063532	    -11.99254035	     10.86969179	     -5.59605765	      3.09031175
      4.36000000	     -9.30885195	      2.52169839	     -5.01394256	     -1.13492599	     -0.04375989	     -0.31045770	     -1.58656305	     -5.35484336	     -2.42661529	    -35.94076878	    -10.61175934	     19.78180962	     32.30046984	     37.68184734	      1.77891131	     -1.53316147	    -25.93587984	     -2.35268292	     11.26826358	    -11.81418812	     11.08003934	     -6.11984440	      2.89575174
      4.36500000	     -9.36051946	      2.88871945	     -4.92483614	     -1.12778662	     -0.04355544	     -0.31128963	     -1.07311034	     -6.02459700	     -2.81145541	    -37.21341862	    -12.49979405	     20.10614485	     32.63295188	     37.45487471	      2.39276855	     -1.16860322	    -26.26101022	     -2.35861851	     10.58066541	    -11.57550739	     11.22550286	     -6.59733547	      2.74316581
      4.37000000	     -9.40996661	      3.25298165	     -4.84138514	     -1.12073627	     -0.04332612	     -0.31213811	     -0.51639467	     -6.67822345	     -3.12229963	    -38.53362247	    -14.33339932	     20.30595300	     32.75116740	     37.18994706	      3.01316003	     -0.79760264	    -26.51821753	     -2.33027678	      9.86180348	    -11.27635904	     11.36051870	     -7.05984372	      2.60152034
      4.37500000	     -9.46688797	      3.62086690	     -4.76061204	     -1.11378545	     -0.04307999	     -0.31301617	      0.09627161	     -7.32155995	     -3.37082547	    -39.90198318	    -16.07351633	     20.36782029	     32.64306568	     36.89935797	      3.64474147	     -0.42372530	    -26.70588567	     -2.28508366	      9.10881592	    -10.93590156	     11.49255137	     -7.50793466	      2.46727500
      4.38000000	     -9.53681957	      3.99345467	     -4.67669674	     -1.10693358	     -0.04282004	     -0.31393266	      0.77258736	     -7.95660549	     -3.57336866	    -41.32124880	    -17.68930441	     20.28882387	     32.29410362	     36.59204386	      4.28976748	     -0.04518476	    -26.82664966	     -2.23972469	      8.31249102	    -10.55548816	     11.63243119	     -7.94706778	      2.33641137
      4.38500000	     -9.62251583	      4.37053035	     -4.59458333	     -1.10016744	     -0.04253176	     -0.31484104	      1.51230887	     -8.57238661	     -3.71658474	    -42.77880983	    -19.16255096	     20.03190139	     31.68010629	     36.27220018	      4.93246589	      0.30959948	    -26.88758107	     -2.17170525	      7.53465004	    -10.19354570	     11.78458563	     -8.38207575	      2.20134235
      4.39000000	     -9.68140313	      4.75353566	     -4.51247850	     -1.09347629	     -0.04220308	     -0.31567931	      2.26329265	     -9.18550781	     -3.88080428	    -44.25141175	    -20.52510110	     19.50744077	     31.04799679	     35.91859868	      5.54525526	      0.50770096	    -26.94476138	     -1.92239007	      7.01964887	     -9.97848052	     11.90652845	     -8.83094143	      2.06700509
      4.39500000	     -9.85955234	      5.14953398	     -4.36789859	     -1.08687689	     -0.04193845	     -0.31674936	      3.19463946	     -9.79804011	     -3.98539541	    -45.85494695	    -21.34208459	     19.25035741	     29.22149027	     35.63904735	      6.24666800	      0.95506112	    -26.85525458	     -2.03414050	      6.08734169	     -9.37966545	     12.14504616	     -9.26332559	      1.86036210
      4.40000000	     -9.95856600	      5.46784367	     -4.33412521	     -1.08044932	     -0.04146096	     -0.31760157	      4.09017866	    -10.27423037	     -3.95128419	    -47.33696558	    -22.41328176	     18.38797587	     28.20963712	     35.27161329	      6.78164317	      1.22933696	    -26.79861504	     -1.83966362	      5.44533440	     -9.28579300	     12.28444440	     -9.59688328	      1.77378625
